<mxfile host="app.diagrams.net" modified="2023-07-08T03:49:16.551Z" agent="Mozilla/5.0 (Windows NT 10.0; Win64; x64) AppleWebKit/537.36 (KHTML, like Gecko) Chrome/114.0.0.0 Safari/537.36" etag="6XMoOfQJGnbtJYa219ED" version="21.6.1" type="github">
  <diagram name="Page-1" id="jJdxM7EmsyqQNZtLYiV7">
    <mxGraphModel dx="875" dy="436" grid="0" gridSize="10" guides="1" tooltips="1" connect="1" arrows="1" fold="1" page="1" pageScale="1" pageWidth="850" pageHeight="1100" math="0" shadow="0">
      <root>
        <mxCell id="0" />
        <mxCell id="1" parent="0" />
        <mxCell id="GKQggHe9KcRYa-T3ZE-0-2" style="edgeStyle=orthogonalEdgeStyle;rounded=0;orthogonalLoop=1;jettySize=auto;html=1;exitX=0.5;exitY=1;exitDx=0;exitDy=0;entryX=0.5;entryY=0;entryDx=0;entryDy=0;" parent="1" source="DMdcWSSxo6niQwHTl1T3-80" target="DMdcWSSxo6niQwHTl1T3-81" edge="1">
          <mxGeometry relative="1" as="geometry" />
        </mxCell>
        <mxCell id="DMdcWSSxo6niQwHTl1T3-80" value="Start" style="ellipse;whiteSpace=wrap;html=1;" parent="1" vertex="1">
          <mxGeometry x="498.5" y="70" width="65" height="30" as="geometry" />
        </mxCell>
        <mxCell id="DMdcWSSxo6niQwHTl1T3-85" style="edgeStyle=orthogonalEdgeStyle;rounded=0;orthogonalLoop=1;jettySize=auto;html=1;exitX=0.5;exitY=1;exitDx=0;exitDy=0;entryX=0.5;entryY=0;entryDx=0;entryDy=0;" parent="1" source="DMdcWSSxo6niQwHTl1T3-81" target="DMdcWSSxo6niQwHTl1T3-83" edge="1">
          <mxGeometry relative="1" as="geometry" />
        </mxCell>
        <mxCell id="DMdcWSSxo6niQwHTl1T3-81" value="Turn motor off&lt;br&gt;Turn buzzer off&lt;br&gt;displayOn = true" style="rounded=0;whiteSpace=wrap;html=1;" parent="1" vertex="1">
          <mxGeometry x="474" y="125" width="114" height="55" as="geometry" />
        </mxCell>
        <mxCell id="DMdcWSSxo6niQwHTl1T3-115" style="edgeStyle=orthogonalEdgeStyle;rounded=0;orthogonalLoop=1;jettySize=auto;html=1;exitX=0;exitY=0.5;exitDx=0;exitDy=0;entryX=0.5;entryY=0;entryDx=0;entryDy=0;" parent="1" source="DMdcWSSxo6niQwHTl1T3-83" target="DMdcWSSxo6niQwHTl1T3-91" edge="1">
          <mxGeometry relative="1" as="geometry" />
        </mxCell>
        <mxCell id="DMdcWSSxo6niQwHTl1T3-116" value="True" style="edgeLabel;html=1;align=center;verticalAlign=middle;resizable=0;points=[];" parent="DMdcWSSxo6niQwHTl1T3-115" vertex="1" connectable="0">
          <mxGeometry x="-0.3929" y="-2" relative="1" as="geometry">
            <mxPoint as="offset" />
          </mxGeometry>
        </mxCell>
        <mxCell id="DMdcWSSxo6niQwHTl1T3-83" value="Level = 0" style="rhombus;whiteSpace=wrap;html=1;" parent="1" vertex="1">
          <mxGeometry x="493.5" y="210" width="80.5" height="40" as="geometry" />
        </mxCell>
        <mxCell id="DMdcWSSxo6niQwHTl1T3-89" style="edgeStyle=orthogonalEdgeStyle;rounded=0;orthogonalLoop=1;jettySize=auto;html=1;exitX=1;exitY=0.5;exitDx=0;exitDy=0;entryX=1;entryY=0;entryDx=0;entryDy=0;" parent="1" source="DMdcWSSxo6niQwHTl1T3-83" target="DMdcWSSxo6niQwHTl1T3-83" edge="1">
          <mxGeometry relative="1" as="geometry">
            <mxPoint x="534" y="190" as="targetPoint" />
            <Array as="points">
              <mxPoint x="624" y="230" />
              <mxPoint x="624" y="200" />
              <mxPoint x="554" y="200" />
            </Array>
          </mxGeometry>
        </mxCell>
        <mxCell id="DMdcWSSxo6niQwHTl1T3-90" value="False" style="edgeLabel;html=1;align=center;verticalAlign=middle;resizable=0;points=[];" parent="DMdcWSSxo6niQwHTl1T3-89" vertex="1" connectable="0">
          <mxGeometry x="-0.7368" relative="1" as="geometry">
            <mxPoint as="offset" />
          </mxGeometry>
        </mxCell>
        <mxCell id="DMdcWSSxo6niQwHTl1T3-94" style="edgeStyle=orthogonalEdgeStyle;rounded=0;orthogonalLoop=1;jettySize=auto;html=1;exitX=0.5;exitY=1;exitDx=0;exitDy=0;entryX=0.5;entryY=0;entryDx=0;entryDy=0;" parent="1" source="DMdcWSSxo6niQwHTl1T3-91" target="DMdcWSSxo6niQwHTl1T3-93" edge="1">
          <mxGeometry relative="1" as="geometry" />
        </mxCell>
        <mxCell id="DMdcWSSxo6niQwHTl1T3-91" value="Turn motor on" style="rounded=0;whiteSpace=wrap;html=1;" parent="1" vertex="1">
          <mxGeometry x="384" y="270" width="120" height="40" as="geometry" />
        </mxCell>
        <mxCell id="DMdcWSSxo6niQwHTl1T3-105" style="edgeStyle=orthogonalEdgeStyle;rounded=0;orthogonalLoop=1;jettySize=auto;html=1;entryX=0.5;entryY=0;entryDx=0;entryDy=0;" parent="1" source="DMdcWSSxo6niQwHTl1T3-93" target="DMdcWSSxo6niQwHTl1T3-104" edge="1">
          <mxGeometry relative="1" as="geometry" />
        </mxCell>
        <mxCell id="DMdcWSSxo6niQwHTl1T3-93" value="oldLevel = Level&lt;br&gt;timerOn = true" style="rounded=0;whiteSpace=wrap;html=1;" parent="1" vertex="1">
          <mxGeometry x="371" y="340" width="143" height="50" as="geometry" />
        </mxCell>
        <mxCell id="DMdcWSSxo6niQwHTl1T3-98" style="edgeStyle=orthogonalEdgeStyle;rounded=0;orthogonalLoop=1;jettySize=auto;html=1;exitX=1;exitY=0.5;exitDx=0;exitDy=0;entryX=0.5;entryY=0;entryDx=0;entryDy=0;" parent="1" source="DMdcWSSxo6niQwHTl1T3-95" target="DMdcWSSxo6niQwHTl1T3-97" edge="1">
          <mxGeometry relative="1" as="geometry" />
        </mxCell>
        <mxCell id="DMdcWSSxo6niQwHTl1T3-99" value="False" style="edgeLabel;html=1;align=center;verticalAlign=middle;resizable=0;points=[];" parent="DMdcWSSxo6niQwHTl1T3-98" vertex="1" connectable="0">
          <mxGeometry x="-0.2529" y="-2" relative="1" as="geometry">
            <mxPoint as="offset" />
          </mxGeometry>
        </mxCell>
        <mxCell id="DMdcWSSxo6niQwHTl1T3-119" style="edgeStyle=orthogonalEdgeStyle;rounded=0;orthogonalLoop=1;jettySize=auto;html=1;exitX=0;exitY=0.5;exitDx=0;exitDy=0;entryX=0.5;entryY=0;entryDx=0;entryDy=0;" parent="1" source="DMdcWSSxo6niQwHTl1T3-95" target="DMdcWSSxo6niQwHTl1T3-117" edge="1">
          <mxGeometry relative="1" as="geometry" />
        </mxCell>
        <mxCell id="xXGP4RgzsmWHyf6P6Z4C-1" value="True" style="edgeLabel;html=1;align=center;verticalAlign=middle;resizable=0;points=[];" parent="DMdcWSSxo6niQwHTl1T3-119" vertex="1" connectable="0">
          <mxGeometry x="-0.2623" y="1" relative="1" as="geometry">
            <mxPoint as="offset" />
          </mxGeometry>
        </mxCell>
        <mxCell id="DMdcWSSxo6niQwHTl1T3-95" value="Level &amp;gt; oldLevel" style="rhombus;whiteSpace=wrap;html=1;" parent="1" vertex="1">
          <mxGeometry x="377.75" y="521.5" width="125" height="50" as="geometry" />
        </mxCell>
        <mxCell id="DMdcWSSxo6niQwHTl1T3-100" style="edgeStyle=orthogonalEdgeStyle;rounded=0;orthogonalLoop=1;jettySize=auto;html=1;exitX=1;exitY=0.5;exitDx=0;exitDy=0;entryX=1;entryY=0.5;entryDx=0;entryDy=0;" parent="1" source="DMdcWSSxo6niQwHTl1T3-97" target="DMdcWSSxo6niQwHTl1T3-93" edge="1">
          <mxGeometry relative="1" as="geometry" />
        </mxCell>
        <mxCell id="DMdcWSSxo6niQwHTl1T3-101" value="False" style="edgeLabel;html=1;align=center;verticalAlign=middle;resizable=0;points=[];" parent="DMdcWSSxo6niQwHTl1T3-100" vertex="1" connectable="0">
          <mxGeometry x="-0.5987" relative="1" as="geometry">
            <mxPoint as="offset" />
          </mxGeometry>
        </mxCell>
        <mxCell id="DMdcWSSxo6niQwHTl1T3-103" style="edgeStyle=orthogonalEdgeStyle;rounded=0;orthogonalLoop=1;jettySize=auto;html=1;exitX=0;exitY=0.5;exitDx=0;exitDy=0;entryX=0.5;entryY=0;entryDx=0;entryDy=0;" parent="1" source="DMdcWSSxo6niQwHTl1T3-97" target="DMdcWSSxo6niQwHTl1T3-102" edge="1">
          <mxGeometry relative="1" as="geometry" />
        </mxCell>
        <mxCell id="DMdcWSSxo6niQwHTl1T3-97" value="timeOut" style="rhombus;whiteSpace=wrap;html=1;" parent="1" vertex="1">
          <mxGeometry x="566.25" y="566" width="77.75" height="44" as="geometry" />
        </mxCell>
        <mxCell id="DMdcWSSxo6niQwHTl1T3-128" style="edgeStyle=orthogonalEdgeStyle;rounded=0;orthogonalLoop=1;jettySize=auto;html=1;exitX=0.5;exitY=1;exitDx=0;exitDy=0;entryX=0.5;entryY=0;entryDx=0;entryDy=0;" parent="1" source="DMdcWSSxo6niQwHTl1T3-102" target="DMdcWSSxo6niQwHTl1T3-129" edge="1">
          <mxGeometry relative="1" as="geometry">
            <mxPoint x="494" y="730" as="targetPoint" />
          </mxGeometry>
        </mxCell>
        <mxCell id="DMdcWSSxo6niQwHTl1T3-102" value="Turn motor off&lt;br&gt;displayOn = false&lt;br&gt;Print &quot;COUTINUE?&quot;&lt;br&gt;turn buzzer on&lt;br&gt;timerOn = true&lt;br&gt;timerCount = 1(10s)" style="rounded=0;whiteSpace=wrap;html=1;" parent="1" vertex="1">
          <mxGeometry x="402.5" y="610" width="140" height="96.5" as="geometry" />
        </mxCell>
        <mxCell id="DMdcWSSxo6niQwHTl1T3-107" style="edgeStyle=orthogonalEdgeStyle;rounded=0;orthogonalLoop=1;jettySize=auto;html=1;exitX=0;exitY=0.5;exitDx=0;exitDy=0;entryX=0.5;entryY=0;entryDx=0;entryDy=0;" parent="1" source="DMdcWSSxo6niQwHTl1T3-104" target="DMdcWSSxo6niQwHTl1T3-106" edge="1">
          <mxGeometry relative="1" as="geometry" />
        </mxCell>
        <mxCell id="DMdcWSSxo6niQwHTl1T3-112" value="True" style="edgeLabel;html=1;align=center;verticalAlign=middle;resizable=0;points=[];" parent="DMdcWSSxo6niQwHTl1T3-107" vertex="1" connectable="0">
          <mxGeometry x="-0.2781" relative="1" as="geometry">
            <mxPoint as="offset" />
          </mxGeometry>
        </mxCell>
        <mxCell id="DMdcWSSxo6niQwHTl1T3-109" style="edgeStyle=orthogonalEdgeStyle;rounded=0;orthogonalLoop=1;jettySize=auto;html=1;exitX=1;exitY=0.5;exitDx=0;exitDy=0;entryX=0.5;entryY=0;entryDx=0;entryDy=0;" parent="1" source="DMdcWSSxo6niQwHTl1T3-104" target="DMdcWSSxo6niQwHTl1T3-108" edge="1">
          <mxGeometry relative="1" as="geometry" />
        </mxCell>
        <mxCell id="DMdcWSSxo6niQwHTl1T3-113" value="False" style="edgeLabel;html=1;align=center;verticalAlign=middle;resizable=0;points=[];" parent="DMdcWSSxo6niQwHTl1T3-109" vertex="1" connectable="0">
          <mxGeometry x="-0.3848" relative="1" as="geometry">
            <mxPoint as="offset" />
          </mxGeometry>
        </mxCell>
        <mxCell id="DMdcWSSxo6niQwHTl1T3-104" value="Level = 0" style="rhombus;whiteSpace=wrap;html=1;" parent="1" vertex="1">
          <mxGeometry x="402.5" y="410" width="80" height="40" as="geometry" />
        </mxCell>
        <mxCell id="DMdcWSSxo6niQwHTl1T3-110" style="edgeStyle=orthogonalEdgeStyle;rounded=0;orthogonalLoop=1;jettySize=auto;html=1;exitX=0.5;exitY=1;exitDx=0;exitDy=0;entryX=0.5;entryY=0;entryDx=0;entryDy=0;" parent="1" source="DMdcWSSxo6niQwHTl1T3-106" target="DMdcWSSxo6niQwHTl1T3-95" edge="1">
          <mxGeometry relative="1" as="geometry" />
        </mxCell>
        <mxCell id="DMdcWSSxo6niQwHTl1T3-106" value="timerCount = 1 (10s)" style="rounded=0;whiteSpace=wrap;html=1;" parent="1" vertex="1">
          <mxGeometry x="284" y="450" width="120" height="30" as="geometry" />
        </mxCell>
        <mxCell id="DMdcWSSxo6niQwHTl1T3-111" style="edgeStyle=orthogonalEdgeStyle;rounded=0;orthogonalLoop=1;jettySize=auto;html=1;exitX=0.5;exitY=1;exitDx=0;exitDy=0;entryX=0.5;entryY=0;entryDx=0;entryDy=0;" parent="1" source="DMdcWSSxo6niQwHTl1T3-108" target="DMdcWSSxo6niQwHTl1T3-95" edge="1">
          <mxGeometry relative="1" as="geometry" />
        </mxCell>
        <mxCell id="DMdcWSSxo6niQwHTl1T3-108" value="timerCount = 2 (20s)" style="rounded=0;whiteSpace=wrap;html=1;" parent="1" vertex="1">
          <mxGeometry x="484" y="450" width="116" height="30" as="geometry" />
        </mxCell>
        <mxCell id="DMdcWSSxo6niQwHTl1T3-120" style="edgeStyle=orthogonalEdgeStyle;rounded=0;orthogonalLoop=1;jettySize=auto;html=1;exitX=1;exitY=0.5;exitDx=0;exitDy=0;entryX=0;entryY=1;entryDx=0;entryDy=0;" parent="1" source="DMdcWSSxo6niQwHTl1T3-117" target="DMdcWSSxo6niQwHTl1T3-95" edge="1">
          <mxGeometry relative="1" as="geometry">
            <Array as="points">
              <mxPoint x="409" y="590" />
            </Array>
          </mxGeometry>
        </mxCell>
        <mxCell id="DMdcWSSxo6niQwHTl1T3-121" value="False" style="edgeLabel;html=1;align=center;verticalAlign=middle;resizable=0;points=[];" parent="DMdcWSSxo6niQwHTl1T3-120" vertex="1" connectable="0">
          <mxGeometry x="-0.5154" y="1" relative="1" as="geometry">
            <mxPoint as="offset" />
          </mxGeometry>
        </mxCell>
        <mxCell id="DMdcWSSxo6niQwHTl1T3-124" style="edgeStyle=orthogonalEdgeStyle;rounded=0;orthogonalLoop=1;jettySize=auto;html=1;exitX=0;exitY=0.5;exitDx=0;exitDy=0;entryX=0.5;entryY=1;entryDx=0;entryDy=0;" parent="1" source="DMdcWSSxo6niQwHTl1T3-117" target="DMdcWSSxo6niQwHTl1T3-123" edge="1">
          <mxGeometry relative="1" as="geometry">
            <Array as="points">
              <mxPoint x="234" y="590" />
            </Array>
          </mxGeometry>
        </mxCell>
        <mxCell id="DMdcWSSxo6niQwHTl1T3-126" value="True" style="edgeLabel;html=1;align=center;verticalAlign=middle;resizable=0;points=[];" parent="DMdcWSSxo6niQwHTl1T3-124" vertex="1" connectable="0">
          <mxGeometry x="0.089" relative="1" as="geometry">
            <mxPoint as="offset" />
          </mxGeometry>
        </mxCell>
        <mxCell id="DMdcWSSxo6niQwHTl1T3-117" value="Level = max" style="rhombus;whiteSpace=wrap;html=1;" parent="1" vertex="1">
          <mxGeometry x="244" y="566" width="100" height="48.5" as="geometry" />
        </mxCell>
        <mxCell id="DMdcWSSxo6niQwHTl1T3-125" style="edgeStyle=orthogonalEdgeStyle;rounded=0;orthogonalLoop=1;jettySize=auto;html=1;exitX=0.5;exitY=0;exitDx=0;exitDy=0;entryX=0;entryY=0.5;entryDx=0;entryDy=0;" parent="1" source="DMdcWSSxo6niQwHTl1T3-123" target="DMdcWSSxo6niQwHTl1T3-93" edge="1">
          <mxGeometry relative="1" as="geometry" />
        </mxCell>
        <mxCell id="DMdcWSSxo6niQwHTl1T3-123" value="Turn motor off" style="rounded=0;whiteSpace=wrap;html=1;" parent="1" vertex="1">
          <mxGeometry x="194" y="490" width="80" height="30" as="geometry" />
        </mxCell>
        <mxCell id="DMdcWSSxo6niQwHTl1T3-131" style="edgeStyle=orthogonalEdgeStyle;rounded=0;orthogonalLoop=1;jettySize=auto;html=1;exitX=1;exitY=0.5;exitDx=0;exitDy=0;entryX=0.5;entryY=0;entryDx=0;entryDy=0;" parent="1" source="DMdcWSSxo6niQwHTl1T3-129" target="DMdcWSSxo6niQwHTl1T3-130" edge="1">
          <mxGeometry relative="1" as="geometry" />
        </mxCell>
        <mxCell id="DMdcWSSxo6niQwHTl1T3-132" value="False" style="edgeLabel;html=1;align=center;verticalAlign=middle;resizable=0;points=[];" parent="DMdcWSSxo6niQwHTl1T3-131" vertex="1" connectable="0">
          <mxGeometry x="-0.3507" relative="1" as="geometry">
            <mxPoint as="offset" />
          </mxGeometry>
        </mxCell>
        <mxCell id="DMdcWSSxo6niQwHTl1T3-148" style="edgeStyle=orthogonalEdgeStyle;rounded=0;orthogonalLoop=1;jettySize=auto;html=1;exitX=0;exitY=0.5;exitDx=0;exitDy=0;" parent="1" source="DMdcWSSxo6niQwHTl1T3-129" edge="1">
          <mxGeometry relative="1" as="geometry">
            <mxPoint x="164" y="765" as="targetPoint" />
          </mxGeometry>
        </mxCell>
        <mxCell id="DMdcWSSxo6niQwHTl1T3-150" value="True" style="edgeLabel;html=1;align=center;verticalAlign=middle;resizable=0;points=[];" parent="DMdcWSSxo6niQwHTl1T3-148" vertex="1" connectable="0">
          <mxGeometry x="-0.5561" y="-1" relative="1" as="geometry">
            <mxPoint as="offset" />
          </mxGeometry>
        </mxCell>
        <mxCell id="DMdcWSSxo6niQwHTl1T3-129" value="button is pressed" style="rhombus;whiteSpace=wrap;html=1;" parent="1" vertex="1">
          <mxGeometry x="431.37" y="730" width="85.25" height="70" as="geometry" />
        </mxCell>
        <mxCell id="DMdcWSSxo6niQwHTl1T3-133" style="edgeStyle=orthogonalEdgeStyle;rounded=0;orthogonalLoop=1;jettySize=auto;html=1;exitX=1;exitY=0.5;exitDx=0;exitDy=0;entryX=1;entryY=0;entryDx=0;entryDy=0;" parent="1" source="DMdcWSSxo6niQwHTl1T3-130" target="DMdcWSSxo6niQwHTl1T3-129" edge="1">
          <mxGeometry relative="1" as="geometry" />
        </mxCell>
        <mxCell id="DMdcWSSxo6niQwHTl1T3-134" value="Flase" style="edgeLabel;html=1;align=center;verticalAlign=middle;resizable=0;points=[];" parent="DMdcWSSxo6niQwHTl1T3-133" vertex="1" connectable="0">
          <mxGeometry x="-0.4878" relative="1" as="geometry">
            <mxPoint as="offset" />
          </mxGeometry>
        </mxCell>
        <mxCell id="DMdcWSSxo6niQwHTl1T3-138" style="edgeStyle=orthogonalEdgeStyle;rounded=0;orthogonalLoop=1;jettySize=auto;html=1;exitX=0;exitY=0.5;exitDx=0;exitDy=0;entryX=0.5;entryY=0;entryDx=0;entryDy=0;" parent="1" source="DMdcWSSxo6niQwHTl1T3-130" target="DMdcWSSxo6niQwHTl1T3-137" edge="1">
          <mxGeometry relative="1" as="geometry" />
        </mxCell>
        <mxCell id="DMdcWSSxo6niQwHTl1T3-145" value="True" style="edgeLabel;html=1;align=center;verticalAlign=middle;resizable=0;points=[];" parent="DMdcWSSxo6niQwHTl1T3-138" vertex="1" connectable="0">
          <mxGeometry x="-0.3162" y="-1" relative="1" as="geometry">
            <mxPoint as="offset" />
          </mxGeometry>
        </mxCell>
        <mxCell id="DMdcWSSxo6niQwHTl1T3-130" value="timeOut" style="rhombus;whiteSpace=wrap;html=1;" parent="1" vertex="1">
          <mxGeometry x="534" y="800" width="80" height="50" as="geometry" />
        </mxCell>
        <mxCell id="DMdcWSSxo6niQwHTl1T3-146" style="edgeStyle=orthogonalEdgeStyle;rounded=0;orthogonalLoop=1;jettySize=auto;html=1;exitX=0;exitY=0.5;exitDx=0;exitDy=0;entryX=0;entryY=0;entryDx=0;entryDy=0;" parent="1" source="DMdcWSSxo6niQwHTl1T3-135" target="DMdcWSSxo6niQwHTl1T3-83" edge="1">
          <mxGeometry relative="1" as="geometry">
            <Array as="points">
              <mxPoint x="164" y="955" />
              <mxPoint x="164" y="200" />
              <mxPoint x="514" y="200" />
            </Array>
          </mxGeometry>
        </mxCell>
        <mxCell id="DMdcWSSxo6niQwHTl1T3-147" value="True" style="edgeLabel;html=1;align=center;verticalAlign=middle;resizable=0;points=[];" parent="DMdcWSSxo6niQwHTl1T3-146" vertex="1" connectable="0">
          <mxGeometry x="-0.8605" relative="1" as="geometry">
            <mxPoint as="offset" />
          </mxGeometry>
        </mxCell>
        <mxCell id="DMdcWSSxo6niQwHTl1T3-135" value="button is pressed" style="rhombus;whiteSpace=wrap;html=1;" parent="1" vertex="1">
          <mxGeometry x="437.32" y="920" width="80" height="70" as="geometry" />
        </mxCell>
        <mxCell id="DMdcWSSxo6niQwHTl1T3-139" style="edgeStyle=orthogonalEdgeStyle;rounded=0;orthogonalLoop=1;jettySize=auto;html=1;exitX=0.5;exitY=1;exitDx=0;exitDy=0;entryX=0.5;entryY=0;entryDx=0;entryDy=0;" parent="1" source="DMdcWSSxo6niQwHTl1T3-137" target="DMdcWSSxo6niQwHTl1T3-135" edge="1">
          <mxGeometry relative="1" as="geometry" />
        </mxCell>
        <mxCell id="DMdcWSSxo6niQwHTl1T3-137" value="turn buzzer off" style="rounded=0;whiteSpace=wrap;html=1;" parent="1" vertex="1">
          <mxGeometry x="429" y="850" width="90" height="40" as="geometry" />
        </mxCell>
        <mxCell id="DMdcWSSxo6niQwHTl1T3-140" style="edgeStyle=orthogonalEdgeStyle;rounded=0;orthogonalLoop=1;jettySize=auto;html=1;exitX=1;exitY=0.5;exitDx=0;exitDy=0;entryX=1;entryY=0;entryDx=0;entryDy=0;" parent="1" source="DMdcWSSxo6niQwHTl1T3-135" target="DMdcWSSxo6niQwHTl1T3-135" edge="1">
          <mxGeometry relative="1" as="geometry">
            <Array as="points">
              <mxPoint x="567.33" y="955" />
              <mxPoint x="567.33" y="937" />
            </Array>
          </mxGeometry>
        </mxCell>
        <mxCell id="DMdcWSSxo6niQwHTl1T3-141" value="False" style="edgeLabel;html=1;align=center;verticalAlign=middle;resizable=0;points=[];" parent="DMdcWSSxo6niQwHTl1T3-140" vertex="1" connectable="0">
          <mxGeometry x="-0.6579" relative="1" as="geometry">
            <mxPoint as="offset" />
          </mxGeometry>
        </mxCell>
        <mxCell id="DMdcWSSxo6niQwHTl1T3-153" style="edgeStyle=orthogonalEdgeStyle;rounded=0;orthogonalLoop=1;jettySize=auto;html=1;exitX=0.5;exitY=1;exitDx=0;exitDy=0;entryX=0.5;entryY=0;entryDx=0;entryDy=0;" parent="1" source="DMdcWSSxo6niQwHTl1T3-151" edge="1">
          <mxGeometry relative="1" as="geometry">
            <mxPoint x="176" y="1236" as="targetPoint" />
          </mxGeometry>
        </mxCell>
        <mxCell id="DMdcWSSxo6niQwHTl1T3-151" value="Timer0&amp;nbsp;interrupt" style="rhombus;whiteSpace=wrap;html=1;" parent="1" vertex="1">
          <mxGeometry x="116" y="1146" width="120" height="60" as="geometry" />
        </mxCell>
        <mxCell id="DMdcWSSxo6niQwHTl1T3-156" style="edgeStyle=orthogonalEdgeStyle;rounded=0;orthogonalLoop=1;jettySize=auto;html=1;exitX=0;exitY=0.5;exitDx=0;exitDy=0;entryX=0.5;entryY=0;entryDx=0;entryDy=0;" parent="1" source="DMdcWSSxo6niQwHTl1T3-154" target="DMdcWSSxo6niQwHTl1T3-157" edge="1">
          <mxGeometry relative="1" as="geometry">
            <mxPoint x="76" y="1316" as="targetPoint" />
          </mxGeometry>
        </mxCell>
        <mxCell id="DMdcWSSxo6niQwHTl1T3-166" value="True" style="edgeLabel;html=1;align=center;verticalAlign=middle;resizable=0;points=[];" parent="DMdcWSSxo6niQwHTl1T3-156" vertex="1" connectable="0">
          <mxGeometry x="0.2693" relative="1" as="geometry">
            <mxPoint as="offset" />
          </mxGeometry>
        </mxCell>
        <mxCell id="DMdcWSSxo6niQwHTl1T3-160" style="edgeStyle=orthogonalEdgeStyle;rounded=0;orthogonalLoop=1;jettySize=auto;html=1;exitX=1;exitY=0.5;exitDx=0;exitDy=0;entryX=0.5;entryY=0;entryDx=0;entryDy=0;" parent="1" source="DMdcWSSxo6niQwHTl1T3-154" target="DMdcWSSxo6niQwHTl1T3-159" edge="1">
          <mxGeometry relative="1" as="geometry">
            <mxPoint x="256" y="1296" as="targetPoint" />
          </mxGeometry>
        </mxCell>
        <mxCell id="DMdcWSSxo6niQwHTl1T3-165" value="False" style="edgeLabel;html=1;align=center;verticalAlign=middle;resizable=0;points=[];" parent="DMdcWSSxo6niQwHTl1T3-160" vertex="1" connectable="0">
          <mxGeometry x="0.2043" y="-1" relative="1" as="geometry">
            <mxPoint as="offset" />
          </mxGeometry>
        </mxCell>
        <mxCell id="DMdcWSSxo6niQwHTl1T3-154" value="speed = normal" style="rhombus;whiteSpace=wrap;html=1;" parent="1" vertex="1">
          <mxGeometry x="121" y="1236" width="110" height="60" as="geometry" />
        </mxCell>
        <mxCell id="DMdcWSSxo6niQwHTl1T3-162" style="edgeStyle=orthogonalEdgeStyle;rounded=0;orthogonalLoop=1;jettySize=auto;html=1;exitX=0.5;exitY=1;exitDx=0;exitDy=0;entryX=0.5;entryY=0;entryDx=0;entryDy=0;" parent="1" source="DMdcWSSxo6niQwHTl1T3-157" target="DMdcWSSxo6niQwHTl1T3-161" edge="1">
          <mxGeometry relative="1" as="geometry" />
        </mxCell>
        <mxCell id="DMdcWSSxo6niQwHTl1T3-157" value="motorControl = !motorControl&amp;nbsp;" style="rounded=0;whiteSpace=wrap;html=1;" parent="1" vertex="1">
          <mxGeometry x="43.5" y="1311" width="100" height="45" as="geometry" />
        </mxCell>
        <mxCell id="DMdcWSSxo6niQwHTl1T3-163" style="edgeStyle=orthogonalEdgeStyle;rounded=0;orthogonalLoop=1;jettySize=auto;html=1;entryX=0.5;entryY=0;entryDx=0;entryDy=0;" parent="1" source="DMdcWSSxo6niQwHTl1T3-159" target="DMdcWSSxo6niQwHTl1T3-161" edge="1">
          <mxGeometry relative="1" as="geometry">
            <Array as="points">
              <mxPoint x="256" y="1376" />
              <mxPoint x="176" y="1376" />
            </Array>
          </mxGeometry>
        </mxCell>
        <mxCell id="DMdcWSSxo6niQwHTl1T3-159" value="motorControl = 1" style="rounded=0;whiteSpace=wrap;html=1;" parent="1" vertex="1">
          <mxGeometry x="206" y="1311" width="100" height="35" as="geometry" />
        </mxCell>
        <mxCell id="DMdcWSSxo6niQwHTl1T3-161" value="End" style="ellipse;whiteSpace=wrap;html=1;" parent="1" vertex="1">
          <mxGeometry x="143.5" y="1396" width="65" height="40" as="geometry" />
        </mxCell>
        <mxCell id="DMdcWSSxo6niQwHTl1T3-169" style="edgeStyle=orthogonalEdgeStyle;rounded=0;orthogonalLoop=1;jettySize=auto;html=1;exitX=0.5;exitY=1;exitDx=0;exitDy=0;entryX=0.5;entryY=0;entryDx=0;entryDy=0;" parent="1" source="DMdcWSSxo6niQwHTl1T3-167" target="DMdcWSSxo6niQwHTl1T3-168" edge="1">
          <mxGeometry relative="1" as="geometry" />
        </mxCell>
        <mxCell id="DMdcWSSxo6niQwHTl1T3-167" value="Timer1 interrupt" style="rhombus;whiteSpace=wrap;html=1;" parent="1" vertex="1">
          <mxGeometry x="421" y="2265" width="110" height="60" as="geometry" />
        </mxCell>
        <mxCell id="DMdcWSSxo6niQwHTl1T3-172" style="edgeStyle=orthogonalEdgeStyle;rounded=0;orthogonalLoop=1;jettySize=auto;html=1;exitX=0;exitY=0.5;exitDx=0;exitDy=0;entryX=0.5;entryY=0;entryDx=0;entryDy=0;" parent="1" source="DMdcWSSxo6niQwHTl1T3-168" target="DMdcWSSxo6niQwHTl1T3-171" edge="1">
          <mxGeometry relative="1" as="geometry" />
        </mxCell>
        <mxCell id="DMdcWSSxo6niQwHTl1T3-173" value="True" style="edgeLabel;html=1;align=center;verticalAlign=middle;resizable=0;points=[];" parent="DMdcWSSxo6niQwHTl1T3-172" vertex="1" connectable="0">
          <mxGeometry x="-0.4968" relative="1" as="geometry">
            <mxPoint as="offset" />
          </mxGeometry>
        </mxCell>
        <mxCell id="DMdcWSSxo6niQwHTl1T3-198" style="edgeStyle=orthogonalEdgeStyle;rounded=0;orthogonalLoop=1;jettySize=auto;html=1;exitX=1;exitY=0.5;exitDx=0;exitDy=0;entryX=1;entryY=0;entryDx=0;entryDy=0;" parent="1" source="DMdcWSSxo6niQwHTl1T3-168" target="DMdcWSSxo6niQwHTl1T3-191" edge="1">
          <mxGeometry relative="1" as="geometry">
            <Array as="points">
              <mxPoint x="566" y="2380" />
              <mxPoint x="566" y="2775" />
              <mxPoint x="496" y="2775" />
            </Array>
          </mxGeometry>
        </mxCell>
        <mxCell id="DMdcWSSxo6niQwHTl1T3-199" value="False" style="edgeLabel;html=1;align=center;verticalAlign=middle;resizable=0;points=[];" parent="DMdcWSSxo6niQwHTl1T3-198" vertex="1" connectable="0">
          <mxGeometry x="-0.9315" y="2" relative="1" as="geometry">
            <mxPoint as="offset" />
          </mxGeometry>
        </mxCell>
        <mxCell id="DMdcWSSxo6niQwHTl1T3-168" value="displayOn" style="rhombus;whiteSpace=wrap;html=1;" parent="1" vertex="1">
          <mxGeometry x="436" y="2355" width="80" height="50" as="geometry" />
        </mxCell>
        <mxCell id="DMdcWSSxo6niQwHTl1T3-175" style="edgeStyle=orthogonalEdgeStyle;rounded=0;orthogonalLoop=1;jettySize=auto;html=1;exitX=0;exitY=0.5;exitDx=0;exitDy=0;entryX=0.5;entryY=0;entryDx=0;entryDy=0;" parent="1" source="DMdcWSSxo6niQwHTl1T3-171" target="DMdcWSSxo6niQwHTl1T3-174" edge="1">
          <mxGeometry relative="1" as="geometry" />
        </mxCell>
        <mxCell id="DMdcWSSxo6niQwHTl1T3-176" value="True" style="edgeLabel;html=1;align=center;verticalAlign=middle;resizable=0;points=[];" parent="DMdcWSSxo6niQwHTl1T3-175" vertex="1" connectable="0">
          <mxGeometry x="-0.4141" relative="1" as="geometry">
            <mxPoint as="offset" />
          </mxGeometry>
        </mxCell>
        <mxCell id="DMdcWSSxo6niQwHTl1T3-178" style="edgeStyle=orthogonalEdgeStyle;rounded=0;orthogonalLoop=1;jettySize=auto;html=1;exitX=1;exitY=0.5;exitDx=0;exitDy=0;entryX=0.5;entryY=0;entryDx=0;entryDy=0;" parent="1" source="DMdcWSSxo6niQwHTl1T3-171" target="DMdcWSSxo6niQwHTl1T3-177" edge="1">
          <mxGeometry relative="1" as="geometry" />
        </mxCell>
        <mxCell id="DMdcWSSxo6niQwHTl1T3-179" value="Flase" style="edgeLabel;html=1;align=center;verticalAlign=middle;resizable=0;points=[];" parent="DMdcWSSxo6niQwHTl1T3-178" vertex="1" connectable="0">
          <mxGeometry x="-0.4611" y="1" relative="1" as="geometry">
            <mxPoint as="offset" />
          </mxGeometry>
        </mxCell>
        <mxCell id="DMdcWSSxo6niQwHTl1T3-171" value="displayMode = 0" style="rhombus;whiteSpace=wrap;html=1;" parent="1" vertex="1">
          <mxGeometry x="326" y="2420" width="110" height="65" as="geometry" />
        </mxCell>
        <mxCell id="DMdcWSSxo6niQwHTl1T3-185" style="edgeStyle=orthogonalEdgeStyle;rounded=0;orthogonalLoop=1;jettySize=auto;html=1;exitX=0.5;exitY=1;exitDx=0;exitDy=0;entryX=0.25;entryY=0;entryDx=0;entryDy=0;" parent="1" source="DMdcWSSxo6niQwHTl1T3-174" target="DMdcWSSxo6niQwHTl1T3-180" edge="1">
          <mxGeometry relative="1" as="geometry" />
        </mxCell>
        <mxCell id="DMdcWSSxo6niQwHTl1T3-174" value="Print level, motor&#39;s status" style="rounded=0;whiteSpace=wrap;html=1;" parent="1" vertex="1">
          <mxGeometry x="236" y="2487.5" width="100" height="40" as="geometry" />
        </mxCell>
        <mxCell id="DMdcWSSxo6niQwHTl1T3-181" style="edgeStyle=orthogonalEdgeStyle;rounded=0;orthogonalLoop=1;jettySize=auto;html=1;exitX=0.5;exitY=1;exitDx=0;exitDy=0;entryX=0.75;entryY=0;entryDx=0;entryDy=0;" parent="1" source="DMdcWSSxo6niQwHTl1T3-177" target="DMdcWSSxo6niQwHTl1T3-180" edge="1">
          <mxGeometry relative="1" as="geometry" />
        </mxCell>
        <mxCell id="DMdcWSSxo6niQwHTl1T3-177" value="Print motor&#39;s speed" style="rounded=0;whiteSpace=wrap;html=1;" parent="1" vertex="1">
          <mxGeometry x="436" y="2487.5" width="80" height="40" as="geometry" />
        </mxCell>
        <mxCell id="DMdcWSSxo6niQwHTl1T3-187" style="edgeStyle=orthogonalEdgeStyle;rounded=0;orthogonalLoop=1;jettySize=auto;html=1;exitX=0.5;exitY=1;exitDx=0;exitDy=0;entryX=0.5;entryY=0;entryDx=0;entryDy=0;" parent="1" source="DMdcWSSxo6niQwHTl1T3-180" target="DMdcWSSxo6niQwHTl1T3-186" edge="1">
          <mxGeometry relative="1" as="geometry" />
        </mxCell>
        <mxCell id="DMdcWSSxo6niQwHTl1T3-180" value="DisplayCount--" style="rounded=0;whiteSpace=wrap;html=1;" parent="1" vertex="1">
          <mxGeometry x="306" y="2575" width="100" height="40" as="geometry" />
        </mxCell>
        <mxCell id="DMdcWSSxo6niQwHTl1T3-189" style="edgeStyle=orthogonalEdgeStyle;rounded=0;orthogonalLoop=1;jettySize=auto;html=1;exitX=0;exitY=0.5;exitDx=0;exitDy=0;entryX=0.5;entryY=0;entryDx=0;entryDy=0;" parent="1" source="DMdcWSSxo6niQwHTl1T3-186" target="DMdcWSSxo6niQwHTl1T3-188" edge="1">
          <mxGeometry relative="1" as="geometry" />
        </mxCell>
        <mxCell id="DMdcWSSxo6niQwHTl1T3-190" value="True" style="edgeLabel;html=1;align=center;verticalAlign=middle;resizable=0;points=[];" parent="DMdcWSSxo6niQwHTl1T3-189" vertex="1" connectable="0">
          <mxGeometry x="-0.4343" relative="1" as="geometry">
            <mxPoint as="offset" />
          </mxGeometry>
        </mxCell>
        <mxCell id="DMdcWSSxo6niQwHTl1T3-193" style="edgeStyle=orthogonalEdgeStyle;rounded=0;orthogonalLoop=1;jettySize=auto;html=1;exitX=1;exitY=0.5;exitDx=0;exitDy=0;entryX=0.5;entryY=0;entryDx=0;entryDy=0;" parent="1" source="DMdcWSSxo6niQwHTl1T3-186" target="DMdcWSSxo6niQwHTl1T3-191" edge="1">
          <mxGeometry relative="1" as="geometry" />
        </mxCell>
        <mxCell id="DMdcWSSxo6niQwHTl1T3-194" value="False" style="edgeLabel;html=1;align=center;verticalAlign=middle;resizable=0;points=[];" parent="DMdcWSSxo6niQwHTl1T3-193" vertex="1" connectable="0">
          <mxGeometry x="-0.7816" y="-1" relative="1" as="geometry">
            <mxPoint as="offset" />
          </mxGeometry>
        </mxCell>
        <mxCell id="DMdcWSSxo6niQwHTl1T3-186" value="displayCount = 0" style="rhombus;whiteSpace=wrap;html=1;" parent="1" vertex="1">
          <mxGeometry x="291" y="2645" width="130" height="70" as="geometry" />
        </mxCell>
        <mxCell id="DMdcWSSxo6niQwHTl1T3-197" style="edgeStyle=orthogonalEdgeStyle;rounded=0;orthogonalLoop=1;jettySize=auto;html=1;exitX=0.5;exitY=1;exitDx=0;exitDy=0;entryX=0;entryY=0;entryDx=0;entryDy=0;" parent="1" source="DMdcWSSxo6niQwHTl1T3-188" target="DMdcWSSxo6niQwHTl1T3-191" edge="1">
          <mxGeometry relative="1" as="geometry" />
        </mxCell>
        <mxCell id="DMdcWSSxo6niQwHTl1T3-188" value="displayMode = !displayMode&lt;br&gt;displayCount = 60 (3s)" style="rounded=0;whiteSpace=wrap;html=1;" parent="1" vertex="1">
          <mxGeometry x="146" y="2705" width="170" height="49.75" as="geometry" />
        </mxCell>
        <mxCell id="DMdcWSSxo6niQwHTl1T3-202" style="edgeStyle=orthogonalEdgeStyle;rounded=0;orthogonalLoop=1;jettySize=auto;html=1;exitX=0;exitY=0.5;exitDx=0;exitDy=0;entryX=0.5;entryY=0;entryDx=0;entryDy=0;" parent="1" source="DMdcWSSxo6niQwHTl1T3-191" target="DMdcWSSxo6niQwHTl1T3-201" edge="1">
          <mxGeometry relative="1" as="geometry" />
        </mxCell>
        <mxCell id="DMdcWSSxo6niQwHTl1T3-214" value="True" style="edgeLabel;html=1;align=center;verticalAlign=middle;resizable=0;points=[];" parent="DMdcWSSxo6niQwHTl1T3-202" vertex="1" connectable="0">
          <mxGeometry x="-0.3566" y="1" relative="1" as="geometry">
            <mxPoint as="offset" />
          </mxGeometry>
        </mxCell>
        <mxCell id="DMdcWSSxo6niQwHTl1T3-212" style="edgeStyle=orthogonalEdgeStyle;rounded=0;orthogonalLoop=1;jettySize=auto;html=1;exitX=1;exitY=0.5;exitDx=0;exitDy=0;entryX=1;entryY=0.5;entryDx=0;entryDy=0;" parent="1" source="DMdcWSSxo6niQwHTl1T3-191" target="DMdcWSSxo6niQwHTl1T3-210" edge="1">
          <mxGeometry relative="1" as="geometry">
            <Array as="points">
              <mxPoint x="556" y="2820" />
              <mxPoint x="556" y="3075" />
            </Array>
          </mxGeometry>
        </mxCell>
        <mxCell id="DMdcWSSxo6niQwHTl1T3-213" value="False" style="edgeLabel;html=1;align=center;verticalAlign=middle;resizable=0;points=[];" parent="DMdcWSSxo6niQwHTl1T3-212" vertex="1" connectable="0">
          <mxGeometry x="-0.8952" y="-1" relative="1" as="geometry">
            <mxPoint as="offset" />
          </mxGeometry>
        </mxCell>
        <mxCell id="DMdcWSSxo6niQwHTl1T3-191" value="timerOn" style="rhombus;whiteSpace=wrap;html=1;" parent="1" vertex="1">
          <mxGeometry x="436" y="2795" width="80" height="50" as="geometry" />
        </mxCell>
        <mxCell id="DMdcWSSxo6niQwHTl1T3-204" style="edgeStyle=orthogonalEdgeStyle;rounded=0;orthogonalLoop=1;jettySize=auto;html=1;exitX=0.5;exitY=1;exitDx=0;exitDy=0;entryX=0.5;entryY=0;entryDx=0;entryDy=0;" parent="1" source="DMdcWSSxo6niQwHTl1T3-201" target="DMdcWSSxo6niQwHTl1T3-203" edge="1">
          <mxGeometry relative="1" as="geometry" />
        </mxCell>
        <mxCell id="DMdcWSSxo6niQwHTl1T3-201" value="timerCount--" style="rounded=0;whiteSpace=wrap;html=1;" parent="1" vertex="1">
          <mxGeometry x="333.5" y="2845" width="95" height="40" as="geometry" />
        </mxCell>
        <mxCell id="DMdcWSSxo6niQwHTl1T3-208" style="edgeStyle=orthogonalEdgeStyle;rounded=0;orthogonalLoop=1;jettySize=auto;html=1;exitX=0;exitY=0.5;exitDx=0;exitDy=0;entryX=0.5;entryY=0;entryDx=0;entryDy=0;" parent="1" source="DMdcWSSxo6niQwHTl1T3-203" target="DMdcWSSxo6niQwHTl1T3-207" edge="1">
          <mxGeometry relative="1" as="geometry" />
        </mxCell>
        <mxCell id="DMdcWSSxo6niQwHTl1T3-209" value="True" style="edgeLabel;html=1;align=center;verticalAlign=middle;resizable=0;points=[];" parent="DMdcWSSxo6niQwHTl1T3-208" vertex="1" connectable="0">
          <mxGeometry x="-0.5652" relative="1" as="geometry">
            <mxPoint as="offset" />
          </mxGeometry>
        </mxCell>
        <mxCell id="DMdcWSSxo6niQwHTl1T3-215" style="edgeStyle=orthogonalEdgeStyle;rounded=0;orthogonalLoop=1;jettySize=auto;html=1;exitX=1;exitY=0.5;exitDx=0;exitDy=0;entryX=0.5;entryY=0;entryDx=0;entryDy=0;" parent="1" source="DMdcWSSxo6niQwHTl1T3-203" target="DMdcWSSxo6niQwHTl1T3-210" edge="1">
          <mxGeometry relative="1" as="geometry" />
        </mxCell>
        <mxCell id="DMdcWSSxo6niQwHTl1T3-216" value="False" style="edgeLabel;html=1;align=center;verticalAlign=middle;resizable=0;points=[];" parent="DMdcWSSxo6niQwHTl1T3-215" vertex="1" connectable="0">
          <mxGeometry x="-0.7229" y="-1" relative="1" as="geometry">
            <mxPoint as="offset" />
          </mxGeometry>
        </mxCell>
        <mxCell id="DMdcWSSxo6niQwHTl1T3-203" value="timerCount = 0" style="rhombus;whiteSpace=wrap;html=1;" parent="1" vertex="1">
          <mxGeometry x="324.75" y="2915" width="112.5" height="60" as="geometry" />
        </mxCell>
        <mxCell id="DMdcWSSxo6niQwHTl1T3-217" style="edgeStyle=orthogonalEdgeStyle;rounded=0;orthogonalLoop=1;jettySize=auto;html=1;exitX=0.5;exitY=1;exitDx=0;exitDy=0;entryX=0;entryY=0;entryDx=0;entryDy=0;" parent="1" source="DMdcWSSxo6niQwHTl1T3-207" target="DMdcWSSxo6niQwHTl1T3-210" edge="1">
          <mxGeometry relative="1" as="geometry" />
        </mxCell>
        <mxCell id="DMdcWSSxo6niQwHTl1T3-207" value="timeOut = true&lt;br&gt;timerOn = false" style="rounded=0;whiteSpace=wrap;html=1;" parent="1" vertex="1">
          <mxGeometry x="243.5" y="2975" width="90" height="40" as="geometry" />
        </mxCell>
        <mxCell id="DMdcWSSxo6niQwHTl1T3-210" value="End" style="ellipse;whiteSpace=wrap;html=1;" parent="1" vertex="1">
          <mxGeometry x="446" y="3055" width="70" height="40" as="geometry" />
        </mxCell>
        <mxCell id="DMdcWSSxo6niQwHTl1T3-221" style="edgeStyle=orthogonalEdgeStyle;rounded=0;orthogonalLoop=1;jettySize=auto;html=1;exitX=0.5;exitY=1;exitDx=0;exitDy=0;entryX=0.5;entryY=0;entryDx=0;entryDy=0;" parent="1" source="DMdcWSSxo6niQwHTl1T3-218" target="DMdcWSSxo6niQwHTl1T3-220" edge="1">
          <mxGeometry relative="1" as="geometry" />
        </mxCell>
        <mxCell id="DMdcWSSxo6niQwHTl1T3-218" value="external interrupts 0" style="rhombus;whiteSpace=wrap;html=1;" parent="1" vertex="1">
          <mxGeometry x="453.5" y="1146" width="94" height="75" as="geometry" />
        </mxCell>
        <mxCell id="DMdcWSSxo6niQwHTl1T3-223" style="edgeStyle=orthogonalEdgeStyle;rounded=0;orthogonalLoop=1;jettySize=auto;html=1;exitX=0.5;exitY=1;exitDx=0;exitDy=0;entryX=0.5;entryY=0;entryDx=0;entryDy=0;" parent="1" source="DMdcWSSxo6niQwHTl1T3-220" target="DMdcWSSxo6niQwHTl1T3-222" edge="1">
          <mxGeometry relative="1" as="geometry" />
        </mxCell>
        <mxCell id="DMdcWSSxo6niQwHTl1T3-220" value="speed = !speed" style="rounded=0;whiteSpace=wrap;html=1;" parent="1" vertex="1">
          <mxGeometry x="441" y="1254" width="120" height="60" as="geometry" />
        </mxCell>
        <mxCell id="DMdcWSSxo6niQwHTl1T3-222" value="End" style="ellipse;whiteSpace=wrap;html=1;" parent="1" vertex="1">
          <mxGeometry x="461.5" y="1344" width="79" height="49" as="geometry" />
        </mxCell>
      </root>
    </mxGraphModel>
  </diagram>
</mxfile>
